PathFileType	4	(X/Y/Z)	static.trc
DataRate	CameraRate	NumFrames	NumMarkers	Units	OrigDataRate	OrigDataStartFrame	OrigNumFrames
250.000000	250.000000	4	58	mm	250.000000	120	483
Frame#	Time	RASI			LASI			RPSI			LPSI			RAIC			LAIC			RLFC			RMFC			RTH1			RTH2			RTH3			RLMAL			RMMAL			RTB1			RTB2			RTB3			RCAL			RMT1			RMT5			LLFC			LMFC			LTH1			LTH2			LTH3			LLMAL			LMMAL			LTB1			LTB2			LTB3			LCAL			LMT1			LMT5			C7			T10			CLAV			STRN			RACR			LACR			RHJC			LHJC			RKJC			LKJC			RAJC			LAJC			RMT3			LMT3			fRCAL			fLCAL			fRAJC			fLAJC			fRMT1			fLMT1			fRMT5			fLMT5			fRMT3			fLMT3			MTOR			MPEL			
		X1	Y1	Z1	X2	Y2	Z2	X3	Y3	Z3	X4	Y4	Z4	X5	Y5	Z5	X6	Y6	Z6	X7	Y7	Z7	X8	Y8	Z8	X9	Y9	Z9	X10	Y10	Z10	X11	Y11	Z11	X12	Y12	Z12	X13	Y13	Z13	X14	Y14	Z14	X15	Y15	Z15	X16	Y16	Z16	X17	Y17	Z17	X18	Y18	Z18	X19	Y19	Z19	X20	Y20	Z20	X21	Y21	Z21	X22	Y22	Z22	X23	Y23	Z23	X24	Y24	Z24	X25	Y25	Z25	X26	Y26	Z26	X27	Y27	Z27	X28	Y28	Z28	X29	Y29	Z29	X30	Y30	Z30	X31	Y31	Z31	X32	Y32	Z32	X33	Y33	Z33	X34	Y34	Z34	X35	Y35	Z35	X36	Y36	Z36	X37	Y37	Z37	X38	Y38	Z38	X39	Y39	Z39	X40	Y40	Z40	X41	Y41	Z41	X42	Y42	Z42	X43	Y43	Z43	X44	Y44	Z44	X45	Y45	Z45	X46	Y46	Z46	X47	Y47	Z47	X48	Y48	Z48	X49	Y49	Z49	X50	Y50	Z50	X51	Y51	Z51	X52	Y52	Z52	X53	Y53	Z53	X54	Y54	Z54	X55	Y55	Z55	X56	Y56	Z56	X57	Y57	Z57	X58	Y58	Z58	

121	0.48	523.1004028320315	1044.276489257813	406.0757141113284	520.070007324219	1060.225830078125	190.6930084228516	345.8205566406251	1082.355834960938	355.0524291992189	347.2481994628907	1087.229858398438	259.3182678222657	451.0635986328127	1117.658325195313	456.296325683594	462.007995605469	1127.757934570313	161.6898651123047	418.6906433105471	551.7163085937502	490.1287841796877	406.2473449707034	521.0346679687502	369.4464721679689	441.2650451660159	806.0778808593755	501.1721191406252	487.4301757812502	713.5844726562502	490.7732238769534	424.355163574219	629.0527343750002	491.9174804687502	366.6948547363282	96.22522735595709	507.4015808105471	396.4315185546877	105.5355377197266	417.1661071777346	435.3442077636721	397.2270202636721	427.3784179687502	443.145446777344	331.6697387695314	483.3756408691409	427.4595642089846	258.5950012207032	441.8828735351565	312.5401916503907	44.61881256103517	454.7192077636721	530.9253540039065	47.1952247619629	445.9683837890627	519.6999511718752	43.41975402832033	555.061950683594	420.3292236328127	545.7043457031252	109.064811706543	410.8662414550784	520.004333496094	231.7597045898439	440.3670654296877	832.079956054688	101.9989700317383	479.1485595703127	740.6072387695315	106.6260681152344	414.4206237792971	660.014099121094	110.6855087280274	372.1382141113282	100.0353775024415	88.0002365112305	400.2621765136721	102.8195877075196	178.8530578613282	439.6204833984377	395.9079284667971	169.9892120361329	450.7188415527346	324.2356262207032	121.4285354614258	424.8614807128909	258.1037902832032	166.7517700195313	318.0691223144532	44.47439193725587	134.1933746337891	541.5137329101565	42.85253906250001	162.5729217529297	533.1506958007815	41.32677078247072	52.45462036132815	350.9909667968751	1541.682861328126	308.3336486816407	335.1117553710939	1269.356201171875	304.066619873047	495.020202636719	1509.691772460938	307.3030090332032	569.3020629882815	1328.833374023438	310.8428039550782	353.6780700683595	1539.674438476563	481.4561462402346	352.290496826172	1540.247070312501	136.6557922363282	468.5038474370265	991.350602308122	366.1088849874558	466.5035815635986	1001.878245338312	223.9417405323685	412.4689941406252	536.3754882812502	429.7876281738284	415.5977325439455	532.8543395996096	170.4122581481934	381.5631866455079	100.8803825378419	462.2838439941409	386.2001953125001	101.4274826049806	133.4266471862794	525.3126525878909	45.30748939514162	500.5151672363284	537.332214355469	42.08965492248537	107.5137710571289	312.5401916503907	0	454.7192077636721	318.0691223144532	0	134.1933746337891	381.5631866455079	0	462.2838439941409	386.2001953125001	0	133.4266471862794	530.9253540039065	0	445.9683837890627	541.5137329101565	0	162.5729217529297	519.6999511718752	0	555.061950683594	533.1506958007815	0	52.45462036132815	525.3126525878909	0	500.5151672363284	537.332214355469	0	107.5137710571289	387.9949340820314	1532.824035644532	308.4371490478517	434.0597915649416	1068.522003173829	302.7848548889161	
122	0.484	523.087829589844	1044.267333984375	406.0294494628909	520.1196289062502	1060.259765625	190.695297241211	345.8960876464845	1082.358764648438	355.1384277343751	347.2608947753907	1087.21728515625	259.3604431152345	451.0552978515627	1117.660034179688	456.3093261718752	462.055603027344	1127.78662109375	161.7257080078126	418.6886291503909	551.7219238281252	490.1540832519534	406.2835388183596	521.037780761719	369.4660949707032	441.2414855957034	806.060913085938	501.1678161621096	487.4264831542971	713.6125488281252	490.791198730469	424.3446044921877	629.0679931640627	491.934997558594	366.5902709960939	96.22782135009771	507.2881469726565	396.4237976074221	105.5307922363282	417.1557617187502	435.3346862792971	397.2383422851565	427.3792419433596	443.1614990234377	331.7015686035157	483.3974304199221	427.4983215332034	258.559783935547	441.980407714844	312.5684204101564	44.51828765869142	454.6194763183596	530.884704589844	47.20174407958986	445.9161071777346	519.6967773437502	43.42717742919923	555.0350341796877	420.2791137695315	545.7659912109377	109.0907974243165	410.8052062988284	519.9916992187502	231.726776123047	440.4780578613284	832.089965820313	102.1967239379883	479.1684570312502	740.6328735351565	106.6010971069337	414.4075622558596	660.0317382812502	110.6932601928712	372.1471252441407	100.048812866211	88.03152465820315	400.2473754882815	102.782585144043	178.8099517822266	439.6395568847659	395.9167785644534	169.9874877929688	450.7525634765627	324.2652587890626	121.4552764892579	424.8644104003909	258.1017150878907	166.7440490722657	318.049041748047	44.47595214843751	134.1914062500001	541.8469238281252	43.05200576782228	162.6381988525391	533.136413574219	41.32289505004884	52.44478988647464	350.8704223632814	1541.689208984376	308.3622131347657	335.0610351562501	1269.378051757813	304.0576477050782	494.9763488769534	1509.795654296875	307.3470153808595	569.2703247070315	1328.912719726563	310.8499145507814	353.6151733398439	1539.658447265626	481.4607543945315	352.2689514160157	1540.283691406251	136.6719512939454	468.5112634986698	991.3617707419969	366.0441987251004	466.552050370434	1001.917856857033	223.9090997332621	412.4860839843752	536.3798522949221	429.8100891113283	415.5421600341799	532.878845214844	170.4087867736818	381.507034301758	100.8793067932129	462.2219543457034	386.1972503662111	101.415699005127	133.4207382202149	525.2907409667971	45.31446075439455	500.4755706787112	537.4916687011721	42.18745040893556	107.5414943695069	312.5684204101564	0	454.6194763183596	318.049041748047	0	134.1914062500001	381.507034301758	0	462.2219543457034	386.1972503662111	0	133.4207382202149	530.884704589844	0	445.9161071777346	541.8469238281252	0	162.6381988525391	519.6967773437502	0	555.0350341796877	533.136413574219	0	52.44478988647464	525.2907409667971	0	500.4755706787112	537.4916687011721	0	107.5414943695069	387.9327239990236	1532.856750488282	308.4604835510255	434.0911102294924	1068.525787353516	302.8059043884278	
123	0.488	523.1345825195315	1044.326782226563	406.0710754394534	520.1409301757815	1060.2802734375	190.7271423339844	345.9449462890626	1082.370483398438	355.2351379394532	347.2660522460939	1087.242065429688	259.3333740234376	451.0708618164065	1117.681762695313	456.2940979003909	462.1646728515627	1127.927978515625	161.6785430908204	418.6637878417971	551.7376708984377	490.116638183594	406.2608337402346	521.036560058594	369.4483032226564	441.2315368652346	806.068725585938	501.1725158691409	487.4426879882815	713.6175537109377	490.806579589844	424.320495605469	629.0832519531252	491.9553222656252	366.497283935547	96.20349121093756	507.4176940917971	396.4136352539065	105.505973815918	417.207702636719	435.3032226562502	397.2351989746096	427.3894958496096	443.1200256347659	331.679168701172	483.3589477539065	427.4812316894534	258.5554809570314	441.9882507324221	312.590057373047	44.48227310180665	454.5113525390627	530.935974121094	47.21589660644533	445.9605102539065	519.6775512695315	43.45914459228517	554.9919433593752	420.3800354003909	545.7412109375002	109.1046524047852	410.7807922363284	520.0444946289065	231.7420196533204	440.5185241699221	832.1069335937505	102.2089004516602	479.1600646972659	740.6494750976565	106.5862045288087	414.434509277344	660.0764770507815	110.6954803466797	372.393035888672	99.99644470214849	88.14543914794925	400.2339477539065	102.7670593261719	178.8329467773438	439.6526794433596	395.9130554199221	169.9819793701172	450.7785949707034	324.2470703125001	121.4616165161133	424.8809814453127	258.1213989257814	166.7580718994141	318.070281982422	44.483943939209	134.1953125000001	541.4737548828127	42.90396118164064	162.5270690917969	533.1386718750002	41.33662033081056	52.45424652099612	350.7780761718751	1541.660278320313	308.3933715820314	335.0560607910157	1269.330444335938	304.0715942382814	494.948425292969	1509.867065429688	307.3899230957032	569.2744140625002	1329.011474609375	310.892791748047	353.5476989746095	1539.695678710938	481.5214843750002	352.2450256347657	1540.311035156251	136.7041473388672	468.5602121041215	991.404258132335	366.0999081619846	466.5841991661922	1001.934640894972	223.9583536126112	412.4623107910159	536.3871154785159	429.7824707031252	415.5804138183597	532.8928527832034	170.4233360290528	381.4554595947267	100.8547325134278	462.312698364258	386.3134918212892	101.3817520141602	133.4891929626465	525.3067626953127	45.33752059936525	500.4762268066409	537.3062133789065	42.1202907562256	107.4906578063965	312.590057373047	0	454.5113525390627	318.070281982422	0	134.1953125000001	381.4554595947267	0	462.312698364258	386.3134918212892	0	133.4891929626465	530.935974121094	0	445.9605102539065	541.4737548828127	0	162.5270690917969	519.6775512695315	0	554.9919433593752	533.1386718750002	0	52.45424652099612	525.3067626953127	0	500.4762268066409	537.3062133789065	0	107.4906578063965	387.8798065185548	1532.883514404297	308.5022315979005	434.1216278076174	1068.554901123047	302.8416824340821	
124	0.492	523.1204833984377	1044.327880859375	406.0661926269534	520.1245727539065	1060.298583984375	190.7653198242188	345.8579711914064	1082.397827148438	355.2320556640626	347.2840270996095	1087.247924804688	259.3211059570314	451.0769653320315	1117.746215820313	456.2876281738284	462.205017089844	1127.942260742188	161.7005920410157	418.6550598144534	551.7197875976565	490.1362915039065	406.2449645996096	521.0505371093752	369.4417724609376	441.1994323730471	806.0730590820317	501.1820068359377	487.3926086425784	713.621765136719	490.8076477050784	424.1232910156252	628.9185180664065	492.0251770019534	366.6241149902345	96.22918701171881	507.3719482421877	396.4433288574221	105.5464553833008	417.2044982910159	435.3442077636721	397.2554931640627	427.4068603515627	443.1127014160159	331.6836242675782	483.3697814941409	427.5029296875002	258.600311279297	441.9685363769534	312.5791625976564	44.50929641723634	454.5319519042971	530.9501953125002	47.21043014526369	445.967956542969	519.716491699219	43.43414306640626	555.0865478515627	420.3832702636721	545.743835449219	109.0499801635743	410.7922973632815	519.986755371094	231.7690582275392	440.4403381347659	832.1382446289067	102.0861892700196	479.1804199218752	740.6572265625002	106.5735092163087	414.4380493164065	660.0925292968752	110.6625213623047	372.3984985351564	100.0100555419922	88.14719390869143	400.2520141601565	102.7678375244141	178.8365325927735	439.6561584472659	395.9276123046877	169.9867401123047	450.7509765625002	324.2543334960939	121.4670562744141	424.8818969726565	258.1052856445314	166.7524108886719	318.0723571777345	44.47586059570314	134.180160522461	541.7691650390627	43.06183242797853	162.5565185546876	533.146179199219	41.33869934082033	52.44226074218753	350.6565856933595	1541.663574218751	308.3895874023439	334.9907226562501	1269.343139648438	304.0811462402345	494.9242858886721	1509.957885742188	307.4315795898439	569.2889404296877	1329.126220703125	310.9628295898439	353.4646606445314	1539.866577148438	481.5861816406252	352.2026672363282	1540.325439453126	136.7088775634766	468.5429346472213	991.4222546955865	366.0988664140734	466.5654310390434	1001.963998693351	223.985731768868	412.4500122070315	536.3851623535159	429.789031982422	415.5877838134768	532.8652954101565	170.4095191955568	381.5337219238283	100.8878211975098	462.2882232666018	386.3252563476565	101.3889465332032	133.4918632507325	525.3333435058596	45.32228660583498	500.5272521972659	537.4576721191409	42.20026588439943	107.4993896484376	312.5791625976564	0	454.5319519042971	318.0723571777345	0	134.180160522461	381.5337219238283	0	462.2882232666018	386.3252563476565	0	133.4918632507325	530.9501953125002	0	445.967956542969	541.7691650390627	0	162.5565185546876	519.716491699219	0	555.0865478515627	533.146179199219	0	52.44226074218753	525.3333435058596	0	500.5272521972659	537.4576721191409	0	107.4993896484376	387.8120498657228	1532.953369140626	308.5290565490724	434.09676361084	1068.568054199219	302.8461685180665	
